<svg width="32" height="33" viewBox="0 0 32 33" fill="none" xmlns="http://www.w3.org/2000/svg">
<path d="M8.88889 0.5C3.98044 0.5 0 4.48044 0 9.38889V23.6111C0 28.5196 3.98044 32.5 8.88889 32.5H23.1111C28.0196 32.5 32 28.5196 32 23.6111V9.38889C32 4.48044 28.0196 0.5 23.1111 0.5H8.88889ZM26.6667 4.05556C27.648 4.05556 28.4444 4.852 28.4444 5.83333C28.4444 6.81467 27.648 7.61111 26.6667 7.61111C25.6853 7.61111 24.8889 6.81467 24.8889 5.83333C24.8889 4.852 25.6853 4.05556 26.6667 4.05556ZM16 7.61111C20.9084 7.61111 24.8889 11.5916 24.8889 16.5C24.8889 21.4084 20.9084 25.3889 16 25.3889C11.0916 25.3889 7.11111 21.4084 7.11111 16.5C7.11111 11.5916 11.0916 7.61111 16 7.61111ZM16 11.1667C14.5855 11.1667 13.229 11.7286 12.2288 12.7288C11.2286 13.729 10.6667 15.0855 10.6667 16.5C10.6667 17.9145 11.2286 19.271 12.2288 20.2712C13.229 21.2714 14.5855 21.8333 16 21.8333C17.4145 21.8333 18.771 21.2714 19.7712 20.2712C20.7714 19.271 21.3333 17.9145 21.3333 16.5C21.3333 15.0855 20.7714 13.729 19.7712 12.7288C18.771 11.7286 17.4145 11.1667 16 11.1667Z" fill="#FE664A"/>
</svg>
